<?xml version="1.0" encoding="utf-8"?>
<svg version="1.1" id="Layer_1" xmlns="http://www.w3.org/2000/svg" xmlns:xlink="http://www.w3.org/1999/xlink" x="0px" y="0px"
	 viewBox="0 0 2834.6 566.9" style="enable-background:new 0 0 2834.6 566.9;" xml:space="preserve">
<style type="text/css">
	.st0{fill:#FFFFFF;}
</style>
<g>
	<g>
		<g>
			<path class="st0" d="M468.7,68.7C420.7,28,364.4,6,301.4,3.8c-92-3.2-168.7,30.3-228.6,100.3C32.1,151.7,10.2,207.7,7.8,270.2
				c-3.6,92.2,30,169.2,100.3,229.2c48,40.9,104.5,62.9,167.6,65c92,3.2,168.8-30.4,228.5-100.5c43.9-51.5,64.9-112.1,65.5-187
				C568.1,197.3,535.1,124.9,468.7,68.7z M288.7,519.9C158.6,520.5,50.4,413.5,52.3,280.3C54.1,152.5,159.3,46.8,290.8,47.8
				c128.7,1,236.6,106.9,234.3,240.5C522.9,415.7,418.2,520.3,288.7,519.9z M233.6,297.8c-18.4,48.2-36.9,96.3-55.5,144.7
				c67.3,46.9,157.3,44.5,221-0.6c-36.7-96.1-73.3-192.3-110.2-288.9C270.4,201.6,252,249.7,233.6,297.8z M189,117.4
				c-36.9,22.3-63.9,53.4-80.2,93.4c-29.1,70.9-11.2,150.6,33.6,199.6C183,304.2,223.6,198.1,264.3,91.6
				C237.1,95,212.1,103.4,189,117.4z M313.6,91.7c40.5,106.2,80.9,212,121.4,318.1c31.4-37.1,47.3-79.6,47-127.6
				c-0.3-47.9-16.4-90.3-48.2-126.4C401.8,119.7,361.7,98.7,313.6,91.7z"/>
		</g>
	</g>
	<g>
		<path class="st0" d="M966.4,423.6H904l-24.8-64.5H765.6l-23.5,64.5h-60.9L792,139.5h60.7L966.4,423.6z M860.8,311.2l-39.1-105.4l-38.4,105.4
			H860.8z"/>
		<path class="st0" d="M996.4,423.6V139.5h54.5v284.1H996.4z"/>
		<path class="st0" d="M1201.1,217.8v43.4h-37.2v83c0,16.8,0.4,26.6,1.1,29.4c0.7,2.8,2.3,5.1,4.8,6.9c2.5,1.8,5.6,2.7,9.2,2.7
			c5,0,12.3-1.7,21.9-5.2l4.7,42.3c-12.7,5.4-27,8.1-43,8.1c-9.8,0-18.7-1.6-26.6-4.9c-7.9-3.3-13.7-7.6-17.3-12.8
			c-3.7-5.2-6.2-12.3-7.7-21.2c-1.2-6.3-1.7-19.1-1.7-38.4v-89.7h-25v-43.4h25v-40.9l54.7-31.8v72.7H1201.1z"/>
		<path class="st0" d="M1279.6,280.6l-49.4-8.9c5.6-19.9,15.1-34.6,28.7-44.2c13.6-9.6,33.7-14.3,60.5-14.3c24.3,0,42.4,2.9,54.3,8.6
			c11.9,5.8,20.3,13.1,25.1,21.9c4.8,8.9,7.3,25.1,7.3,48.7l-0.6,63.6c0,18.1,0.9,31.4,2.6,40c1.7,8.6,5,17.8,9.8,27.6h-53.9
			c-1.4-3.6-3.2-9-5.2-16.1c-0.9-3.2-1.6-5.4-1.9-6.4c-9.3,9-19.3,15.8-29.8,20.4c-10.6,4.5-21.9,6.8-33.9,6.8
			c-21.2,0-37.9-5.7-50.1-17.2c-12.2-11.5-18.3-26-18.3-43.6c0-11.6,2.8-22,8.3-31.1c5.6-9.1,13.3-16.1,23.4-20.9
			c10-4.8,24.5-9.1,43.3-12.7c25.5-4.8,43.1-9.2,52.9-13.4v-5.4c0-10.5-2.6-17.9-7.8-22.4c-5.2-4.5-14.9-6.7-29.3-6.7
			c-9.7,0-17.2,1.9-22.7,5.7C1287.3,264.3,1283,271,1279.6,280.6z M1352.5,324.7c-7,2.3-18,5.1-33.1,8.3c-15.1,3.2-25,6.4-29.7,9.5
			c-7.1,5-10.7,11.4-10.7,19.2c0,7.6,2.8,14.2,8.5,19.8c5.7,5.6,12.9,8.3,21.7,8.3c9.8,0,19.2-3.2,28.1-9.7c6.6-4.9,10.9-10.9,13-18
			c1.4-4.7,2.1-13.5,2.1-26.6V324.7z"/>
		<path class="st0" d="M1455.6,217.8h50.2v28.1c18-21.8,39.3-32.8,64.2-32.8c13.2,0,24.6,2.7,34.3,8.1s17.6,13.6,23.8,24.6
			c9-11,18.8-19.2,29.3-24.6s21.6-8.1,33.5-8.1c15.1,0,27.9,3.1,38.4,9.2c10.5,6.1,18.3,15.2,23.5,27c3.7,8.8,5.6,23,5.6,42.6v131.6
			h-54.5V305.9c0-20.4-1.9-33.6-5.6-39.5c-5-7.8-12.8-11.6-23.3-11.6c-7.6,0-14.8,2.3-21.5,7c-6.7,4.7-11.6,11.5-14.5,20.4
			c-3,9-4.5,23.2-4.5,42.5v98.8H1580V310.8c0-20-1-32.9-2.9-38.8c-1.9-5.8-4.9-10.1-9-13c-4.1-2.8-9.6-4.3-16.6-4.3
			c-8.4,0-16,2.3-22.7,6.8c-6.7,4.5-11.5,11-14.4,19.6c-2.9,8.5-4.4,22.7-4.4,42.4v100h-54.5V217.8z"/>
		<path class="st0" d="M1931.8,358.1l54.3,9.1c-7,19.9-18,35-33,45.4c-15.1,10.4-33.9,15.6-56.5,15.6c-35.8,0-62.3-11.7-79.5-35.1
			c-13.6-18.7-20.4-42.4-20.4-70.9c0-34.1,8.9-60.8,26.7-80.1c17.8-19.3,40.4-29,67.6-29c30.6,0,54.8,10.1,72.5,30.3
			c17.7,20.2,26.2,51.2,25.4,92.9h-136.4c0.4,16.2,4.8,28.7,13.2,37.7c8.4,9,18.9,13.5,31.4,13.5c8.5,0,15.7-2.3,21.5-7
			C1924.4,375.9,1928.8,368.4,1931.8,358.1z M1934.9,303c-0.4-15.8-4.5-27.7-12.2-36c-7.8-8.2-17.2-12.3-28.3-12.3
			c-11.9,0-21.7,4.3-29.5,13c-7.8,8.7-11.6,20.4-11.4,35.3H1934.9z"/>
		<path class="st0" d="M2127.7,217.8v43.4h-37.2v83c0,16.8,0.4,26.6,1.1,29.4c0.7,2.8,2.3,5.1,4.8,6.9c2.5,1.8,5.6,2.7,9.2,2.7
			c5,0,12.3-1.7,21.9-5.2l4.7,42.3c-12.7,5.4-27,8.1-43,8.1c-9.8,0-18.7-1.6-26.6-4.9c-7.9-3.3-13.7-7.6-17.3-12.8
			s-6.2-12.3-7.7-21.2c-1.2-6.3-1.7-19.1-1.7-38.4v-89.7h-25v-43.4h25v-40.9l54.7-31.8v72.7H2127.7z"/>
		<path class="st0" d="M2217.6,423.6h-54.5V217.8h50.6V247c8.7-13.8,16.4-22.9,23.4-27.3c6.9-4.4,14.8-6.6,23.5-6.6c12.4,0,24.4,3.4,35.9,10.3
			l-16.9,47.5c-9.2-5.9-17.7-8.9-25.6-8.9c-7.6,0-14.1,2.1-19.4,6.3c-5.3,4.2-9.5,11.8-12.5,22.8c-3,11-4.6,34-4.6,69V423.6z"/>
		<path class="st0" d="M2320,189.9v-50.4h54.5v50.4H2320z M2320,423.6V217.8h54.5v205.8H2320z"/>
		<path class="st0" d="M2609.7,278.6l-53.7,9.7c-1.8-10.7-5.9-18.8-12.3-24.2c-6.4-5.4-14.7-8.1-24.9-8.1c-13.6,0-24.4,4.7-32.5,14.1
			c-8.1,9.4-12.1,25-12.1,47c0,24.4,4.1,41.7,12.3,51.7c8.2,10.1,19.2,15.1,33,15.1c10.3,0,18.8-2.9,25.4-8.8
			c6.6-5.9,11.2-16,14-30.3l53.5,9.1c-5.6,24.6-16.2,43.1-32,55.6c-15.8,12.5-36.9,18.8-63.4,18.8c-30.1,0-54.1-9.5-72-28.5
			c-17.9-19-26.8-45.3-26.8-78.9c0-34,9-60.4,26.9-79.4c18-18.9,42.2-28.4,72.9-28.4c25.1,0,45,5.4,59.8,16.2
			C2592.6,240.1,2603.3,256.5,2609.7,278.6z"/>
		<path class="st0" d="M2631.8,364.9l54.7-8.3c2.3,10.6,7,18.6,14.1,24.1c7.1,5.5,17.1,8.2,29.8,8.2c14.1,0,24.7-2.6,31.8-7.8
			c4.8-3.6,7.2-8.5,7.2-14.5c0-4.1-1.3-7.6-3.9-10.3c-2.7-2.6-8.8-5-18.2-7.2c-43.9-9.7-71.8-18.5-83.5-26.6
			c-16.3-11.1-24.4-26.6-24.4-46.3c0-17.8,7-32.8,21.1-45c14.1-12.1,35.9-18.2,65.5-18.2c28.2,0,49.1,4.6,62.8,13.8
			c13.7,9.2,23.1,22.7,28.3,40.7l-51.4,9.5c-2.2-8-6.4-14.1-12.5-18.4c-6.1-4.3-14.9-6.4-26.3-6.4c-14.3,0-24.6,2-30.8,6
			c-4.1,2.8-6.2,6.5-6.2,11c0,3.9,1.8,7.2,5.4,9.9c4.9,3.6,21.9,8.7,50.9,15.3c29,6.6,49.3,14.7,60.8,24.2
			c11.4,9.7,17.1,23.2,17.1,40.5c0,18.9-7.9,35.1-23.6,48.6c-15.8,13.6-39.1,20.3-70,20.3c-28,0-50.2-5.7-66.6-17.1
			C2647.5,399.8,2636.8,384.4,2631.8,364.9z"/>
	</g>
</g>
</svg>
