<?xml version="1.0" encoding="utf-8"?>
<!-- Generator: Adobe Illustrator 22.1.0, SVG Export Plug-In . SVG Version: 6.00 Build 0)  -->
<svg version="1.1" id="Layer_1" xmlns="http://www.w3.org/2000/svg" xmlns:xlink="http://www.w3.org/1999/xlink" x="0px" y="0px"
	 viewBox="0 0 790 214" style="enable-background:new 0 0 790 214;" xml:space="preserve">
<style type="text/css">
	.st0{fill:#FFF;}
	.st1{fill:#FFF;}
	.st3{fill:#FFF;}
</style>
<g>
	<g>
		<g>
			<path class="st3" d="M425.9,68.4v46.2c0,4.4-0.8,8.5-2.5,12.4c-1.7,3.9-4,7.2-6.8,10.1c-2.9,2.9-6.3,5.2-10.2,6.8c-3.9,1.7-8,2.5-12.4,2.5
				h-1.8c-4.4,0-8.5-0.8-12.4-2.5c-3.9-1.7-7.2-3.9-10-6.8c-1-1-2-2.1-2.9-3.2c-0.9-1.1-1.6-2.2-2.3-3.4c-0.8,1.2-1.5,2.3-2.4,3.4
				c-0.8,1.1-1.8,2.1-2.8,3.2c-2.8,2.8-6.2,5.1-10,6.8c-3.8,1.7-8,2.5-12.4,2.5H335c-4.4,0-8.5-0.8-12.4-2.5
				c-3.8-1.7-7.2-4-10.1-6.9c-2.9-2.9-5.2-6.3-6.8-10.1c-1.7-3.9-2.5-7.9-2.5-12.3V68.4h8.5v46.4c0,3.1,0.6,6.1,1.9,8.9
				c1.2,2.8,2.9,5.3,5,7.3c2.1,2.1,4.6,3.8,7.5,5c2.8,1.2,5.8,1.9,9,1.9h1.8c3.3,0,6.3-0.6,9.1-1.8c2.8-1.2,5.3-2.9,7.5-5.1
				c2.2-2.2,3.9-4.7,5-7.5c1.2-2.8,1.8-5.8,1.8-9V68.4h8.5v46.2c0,3.2,0.6,6.2,1.8,9c1.2,2.8,2.9,5.3,5,7.5c2.2,2.2,4.7,3.9,7.5,5.1
				c2.8,1.2,5.8,1.8,9,1.8h2.1c3.2,0,6.2-0.6,9-1.9c2.8-1.2,5.3-2.9,7.3-5c2.1-2.1,3.8-4.6,5-7.4c1.2-2.8,1.9-5.8,1.9-9V68.4H425.9z
				"/>
			<path class="st3" d="M472.6,146.2c-4.4,0-8.5-0.8-12.4-2.5c-3.9-1.7-7.2-4-10.1-6.8c-2.9-2.9-5.2-6.2-6.8-10.1c-1.7-3.8-2.5-8-2.5-12.4v-14
				c0-4.3,0.8-8.4,2.5-12.3c1.7-3.9,4-7.3,6.8-10.1c2.9-2.9,6.2-5.2,10.1-6.8c3.9-1.7,8-2.5,12.4-2.5h25.6c4.4,0,8.6,0.8,12.5,2.5
				c3.9,1.7,7.3,4,10.2,6.8c2.9,2.9,5.2,6.3,6.8,10.1c1.7,3.9,2.5,8,2.5,12.3v14c0,4.4-0.8,8.5-2.5,12.4c-1.7,3.9-4,7.2-6.8,10.1
				c-2.9,2.9-6.3,5.2-10.2,6.8c-3.9,1.7-8,2.5-12.5,2.5H472.6z M449.2,114.3c0,3.2,0.6,6.2,1.9,9c1.2,2.8,2.9,5.3,5,7.4
				c2.1,2.1,4.6,3.8,7.4,5c2.8,1.2,5.8,1.8,9,1.8h25.6c3.2,0,6.2-0.6,9.1-1.8c2.8-1.2,5.3-2.9,7.5-5c2.1-2.1,3.8-4.6,5.1-7.4
				c1.2-2.8,1.8-5.8,1.8-9v-14c0-3.2-0.6-6.2-1.8-9c-1.2-2.8-2.9-5.3-5.1-7.4c-2.1-2.1-4.6-3.8-7.5-5c-2.8-1.2-5.9-1.9-9.1-1.9
				h-25.6c-3.2,0-6.2,0.6-9,1.9c-2.8,1.2-5.3,2.9-7.4,5c-2.1,2.1-3.8,4.6-5,7.4c-1.2,2.8-1.9,5.8-1.9,9V114.3z"/>
			<path class="st3" d="M543.7,146.2v-45.9c0-4.3,0.8-8.4,2.5-12.3c1.7-3.9,4-7.3,6.8-10.1c2.9-2.9,6.2-5.2,10.1-6.8c3.8-1.7,8-2.5,12.4-2.5h28
				V77h-28c-3.2,0-6.2,0.6-9,1.9c-2.8,1.2-5.3,2.9-7.4,5c-2.1,2.1-3.8,4.6-5,7.4c-1.2,2.8-1.8,5.8-1.8,9v45.9H543.7z"/>
			<path class="st3" d="M680.2,106.8c3.3,1.9,6.1,4.2,8.5,7c2.4,2.8,4.3,6,5.7,9.5c1.4,3.6,2.1,7.3,2.1,11.3v11.6h-8.5v-11.8
				c0-3.1-0.6-6.1-1.9-8.9c-1.2-2.8-2.9-5.2-5-7.3c-2.1-2.1-4.6-3.8-7.5-5c-2.8-1.2-5.8-1.8-9-1.8h-36.7v34.9h-8.5V68.4h8.5v34.2
				h30.5l29.8-34.3H700l-30.6,34.7C673.3,103.7,676.9,104.9,680.2,106.8z"/>
			<path class="st3" d="M717.2,146.2v-8.5h49.6c1.8,0,3.5-0.3,5-1c1.6-0.7,2.9-1.6,4.1-2.8c1.2-1.2,2.1-2.6,2.8-4.1c0.7-1.6,1-3.2,1-5
				c0-1.8-0.3-3.5-1-5.1c-0.7-1.6-1.6-3-2.7-4.2c-1.2-1.2-2.5-2.1-4.1-2.8c-1.6-0.7-3.3-1-5.1-1h-32.4c-2.9,0-5.7-0.6-8.3-1.7
				c-2.6-1.1-4.9-2.6-6.9-4.6c-2-1.9-3.5-4.2-4.6-6.8c-1.1-2.6-1.7-5.4-1.7-8.4c0-3,0.6-5.8,1.7-8.5c1.1-2.6,2.6-4.9,4.6-6.9
				c1.9-1.9,4.2-3.5,6.8-4.6c2.6-1.2,5.4-1.7,8.4-1.7H784v8.5h-49.6c-1.9,0-3.6,0.4-5.1,1.1c-1.5,0.7-2.9,1.6-4,2.8
				c-1.2,1.2-2.1,2.5-2.7,4.1c-0.7,1.6-1,3.2-1.1,5c0.3,3.7,1.6,6.9,4,9.4c2.4,2.5,5.4,3.8,8.9,3.8h32.4c3,0,5.8,0.6,8.4,1.7
				c2.6,1.1,4.9,2.6,6.8,4.6c1.9,1.9,3.5,4.2,4.6,6.8c1.1,2.6,1.7,5.4,1.7,8.4c0,3-0.6,5.8-1.7,8.4c-1.1,2.6-2.7,4.9-4.6,6.9
				c-1.9,2-4.2,3.5-6.8,4.6c-2.6,1.1-5.4,1.7-8.4,1.7H717.2z"/>
		</g>
		<path class="st0" d="M192.2,146.5V84.3h10.8v62.2v0h82.1l0.4-7.5c0-0.3,1.1-29.4-16.7-43.1c-9.9-7.7-23.1-9-39-3.9l4.8,15.1
			c10.6-3.4,18.8-3,24.3,1.2c6.5,4.9,9.3,14.8,10.2,22.3h-46.6V68.5h-50v62.2c-4.7,0-9.4,0-10,0c-22.3,0-30.9-11.7-30.9-32.3V68.5
			H112v30h-40v-30H52.4v78.1h19.6V118h42.8c2.8,8.6,7.8,15.3,14.9,20.2c8.3,5.7,18.7,8.3,32.8,8.3L192.2,146.5z"/>
	</g>
	<g>
		<path class="st1" d="M99.3,176.9c-38.3,0.4-69.6-30.2-70-68.5c-0.4-38.3,30.3-69.6,68.5-70c21-0.2,39.8,8.9,52.7,23.4h40.2
			c-1-1.9-2.3-4.2-3.8-6.8c-10-17.3-11.5-16.2-11.5-16.2c-10.8,3.7-18.6,5.5-23.4,6.4c-8-6.9-17.3-12.2-27.5-15.6
			c-1.7-4.5-4.4-12.5-6.9-24.3c0,0,0.2-1.8-19.6-1.6C78.1,3.9,78.4,5.8,78.4,5.8c-2.2,11.4-4.6,19.3-6.2,24
			C62.1,33.2,52.9,38.4,45,45.2c-4.8-0.9-12.6-2.7-23.3-6.4c0,0-1.5-1.1-11.5,16.2c-10,17.3-8.4,18.1-8.4,18.1
			c8,7.3,13.2,13.1,16.4,17c-1.3,5.9-2,12.1-1.9,18.4c0.1,5.7,0.7,11.3,1.9,16.7c-3.2,3.9-8.4,9.6-16.3,16.9c0,0-1.7,0.8,8.4,18.1
			c10,17.3,11.5,16.2,11.5,16.2c10.8-3.7,18.6-5.5,23.4-6.4c8,6.9,17.3,12.2,27.6,15.6c1.7,4.6,4.4,12.5,6.9,24.3
			c0,0-0.2,1.8,19.6,1.6c19.8-0.2,19.5-2.1,19.5-2.1c2.2-11.4,4.6-19.3,6.2-24c10.1-3.4,19.2-8.7,27.1-15.5
			c4.8,0.9,12.6,2.7,23.4,6.4c0,0,1.5,1.1,11.5-16.2c1.6-2.7,2.9-5.1,3.9-7h-40.1C138.2,167.5,119.9,176.7,99.3,176.9z"/>
	</g>
</g>
</svg>
