<?xml version="1.0" encoding="UTF-8"?>
<!-- Generator: Adobe Illustrator 22.0.1, SVG Export Plug-In . SVG Version: 6.00 Build 0)  -->
<svg version="1.1" id="Layer_1" xmlns="http://www.w3.org/2000/svg" xmlns:xlink="http://www.w3.org/1999/xlink" x="0px" y="0px" viewBox="0 0 938 208.4" style="enable-background:new 0 0 938 208.4;" xml:space="preserve">
<g>
	 
	<g>
		<path style="fill:#FFFFFF" d="M86.8,71.5c1.9-2.6,3.7-5.9,5.2-9.8c1.6-3.9,2.4-8.7,2.4-14.4c0-7.1-1.3-13.4-3.8-18.9    c-2.5-5.5-6.1-10.1-10.6-13.8c-4.5-3.7-9.8-6.5-16-8.5C57.9,4.3,51.2,3.3,44,3.3H5.1v112.9h36V87.6l16.9,28.6h42.3L79.2,79    C82,76.9,84.6,74.5,86.8,71.5z M74.5,102.7h-5.2L53.1,75.6c-4.2,0.9-8.5,1.4-12.9,1.4H26.4v25.7H22V16.9h18.3    c5.3,0,10.2,0.7,14.7,1.9c4.5,1.3,8.4,3.2,11.8,5.8c3.3,2.5,5.9,5.7,7.9,9.4c1.9,3.7,2.9,8.1,2.9,13c0,7.1-1.8,12.9-5.4,17.3    c-3.6,4.5-8.5,7.8-14.6,9.9L74.5,102.7z M64.4,27.7c-5.8-4.5-13.8-6.8-24.1-6.8H26.4v51.9h13.9c10.3,0,18.3-2.2,24.1-6.7    c5.8-4.5,8.7-10.9,8.7-19.2C73.1,38.7,70.2,32.2,64.4,27.7z M53.9,56c-3,1.9-6.6,2.9-10.9,2.9h-1.9v-25H43c4.3,0,7.9,1,10.9,2.9    c3,1.9,4.5,5.1,4.5,9.6C58.4,50.8,56.9,54,53.9,56z M139.8,73.6h29.9V45.5h-29.9V33h30.5V3.3h-66.5v112.9h67.7V86.6h-31.6V73.6z     M158.9,98.6v4.1h-38.2V16.9h38.2v4.1h-33.8v36.5h32.1v4.1h-32.1v37.1H158.9z M242.2,60.2c-2.2-3-4.6-5.8-7.3-8.1    c-2.7-2.4-5.1-4.5-7.3-6.3c-2.2-1.8-4.1-3.4-5.6-4.7c-1.5-1.4-2.3-2.5-2.3-3.4c0-1,0.3-1.8,1-2.4c0.7-0.6,1.5-1,2.4-1.2    c0.9-0.2,1.9-0.4,2.9-0.4c1-0.1,1.9-0.1,2.5-0.1c1.2,0,2.4,0.1,3.6,0.2c1.1,0.1,2.1,0.2,3,0.3c1.1,0.1,2.1,0.2,3,0.3V2.8    c-2.4-0.3-4.8-0.7-7.3-1c-2.1-0.2-4.6-0.5-7.3-0.8c-2.7-0.3-5.4-0.4-8.1-0.4c-5.2,0-10.1,0.7-14.6,2.1c-4.6,1.4-8.5,3.5-11.9,6.2    c-3.4,2.7-6,6.1-8,10.2c-1.9,4.1-2.9,8.7-2.9,14c0,4.7,0.8,8.9,2.4,12.6c1.6,3.7,3.6,7,6,9.9c2.4,2.9,5,5.5,7.8,7.8    c2.8,2.3,5.4,4.3,7.8,6.2c2.4,1.9,4.4,3.6,6,5.1c1.6,1.5,2.4,3,2.4,4.5c0,3.8-2.6,5.8-7.8,5.8c-2.9,0-5.8-0.2-8.7-0.5    c-2.9-0.3-5.4-0.8-7.7-1.4c-2.7-0.4-5.3-1.1-7.8-1.9V115c2.7,0.8,5.7,1.5,9,2c2.8,0.6,6.1,1,9.7,1.4c3.7,0.4,7.6,0.6,11.9,0.6    c7.1,0,13.3-0.9,18.4-2.8c5.2-1.9,9.4-4.4,12.8-7.6c3.3-3.2,5.8-7,7.4-11.3c1.6-4.3,2.4-9,2.4-14c0-4.7-0.8-9-2.3-12.9    C246.3,66.7,244.4,63.2,242.2,60.2z M231.1,91.9c-1.4,2.7-3.3,4.8-5.7,6.5s-5,2.9-8,3.6c-3,0.7-6.1,1.1-9.2,1.1    c-1.8,0-3.6-0.1-5.3-0.3c-1.8-0.2-3.4-0.4-5-0.6c-1.8-0.2-3.5-0.5-5.1-0.8v-4.4c1.6,0.3,3.2,0.6,4.9,0.8c3.2,0.6,6.7,0.8,10.5,0.8    c6.4,0,11.5-1.4,15.1-4.2c3.7-2.8,5.5-6.9,5.5-12.4c0-2.9-0.8-5.8-2.5-8.5c-1.6-2.7-3.7-5.3-6.3-7.9c-2.5-2.5-5.2-5-8.1-7.5    c-2.9-2.5-5.6-5-8.1-7.7c-2.5-2.6-4.6-5.4-6.3-8.1c-1.6-2.8-2.5-5.7-2.5-8.9c0-5.9,2-10.2,5.9-12.9c3.9-2.8,9-4.1,15.1-4.1    c1,0,2,0,3,0.1c1,0.1,1.8,0.1,2.6,0.3c0.9,0.1,1.7,0.2,2.5,0.2v4.4c-0.9,0-1.8-0.1-2.7-0.2c-0.9-0.1-1.8-0.2-2.8-0.3    c-1-0.1-1.9-0.1-2.8-0.1c-5.8,0-9.9,1.1-12.5,3.3c-2.6,2.2-3.9,5.3-3.9,9.4c0,2.7,0.8,5.3,2.5,7.9c1.6,2.5,3.7,5.1,6.3,7.6    c2.5,2.5,5.2,5,8.1,7.5c2.9,2.5,5.6,5.1,8.1,7.8c2.5,2.7,4.6,5.5,6.3,8.5c1.6,2.9,2.5,6,2.5,9.3C233.2,86,232.5,89.3,231.1,91.9z     M330.6,3.3h-78.8V33h20.8v83.2h37.2V33h20.8V3.3z M317.6,20.9h-24.2v81.7H289V20.9h-24.2v-4.1h52.8V20.9z M357.2,90.1H410    l-26.4-69.2L357.2,90.1z M376,81.2l7.6-19.8l7.6,19.8H376z M370.1,3.3l-42.8,112.9h35.5l3.7-10.2h34.2l3.7,10.2h35.5L397.1,3.3    H370.1z M414.7,102.7l-3.2-8.5h-55.8l-3.2,8.5h-4.7l32.7-85.8h6.4l32.7,85.8H414.7z M499.3,73.6c0,3.9-0.8,7-2.5,9.1    c-1.6,2.1-4.4,3.1-8.2,3.1c-3.8,0-6.6-1-8.2-3.1c-1.6-2.1-2.5-5.1-2.5-9.1V3.3h-36v71.7c0,7.4,1.1,13.9,3.3,19.5    c2.2,5.5,5.3,10.1,9.4,13.7c4.1,3.6,9,6.3,14.7,8.1c5.8,1.8,12.2,2.7,19.3,2.7c7.1,0,13.5-0.9,19.3-2.7c5.8-1.8,10.7-4.5,14.8-8.1    c4.1-3.6,7.3-8.2,9.5-13.7c2.2-5.5,3.3-12,3.3-19.5V3.3h-36.2V73.6z M514,73.9v-57h4.6v57c0,9.5-2.6,16.7-7.8,21.7    c-5.2,5-12.6,7.5-22.2,7.5c-9.6,0-16.9-2.5-22.1-7.5c-5.1-5-7.7-12.3-7.7-21.7v-57h4.4v57c0,16.6,8.5,24.9,25.4,24.9    C505.6,98.8,514,90.5,514,73.9z M606.2,27.7c-5.8-4.5-13.8-6.8-24.1-6.8h-13.9v51.9h13.9c10.3,0,18.3-2.2,24.1-6.7    c5.8-4.5,8.7-10.9,8.7-19.2C614.9,38.7,612,32.2,606.2,27.7z M595.7,56c-3,1.9-6.6,2.9-10.9,2.9h-1.9v-25h1.9    c4.3,0,7.9,1,10.9,2.9c3,1.9,4.5,5.1,4.5,9.6C600.2,50.8,598.7,54,595.7,56z M666.1,90.1h52.8l-26.4-69.2L666.1,90.1z M684.9,81.2    l7.6-19.8l7.6,19.8H684.9z M679,3.3l-40.4,106.6L621,79c2.8-2,5.4-4.5,7.6-7.4c1.9-2.6,3.7-5.9,5.2-9.8c1.6-3.9,2.4-8.7,2.4-14.4    c0-7.1-1.3-13.4-3.8-18.9c-2.5-5.5-6.1-10.1-10.6-13.8c-4.5-3.7-9.8-6.5-16-8.5c-6.1-1.9-12.8-2.9-20.1-2.9h-38.9v112.9h36V87.6    l16.9,28.6h71.9l3.7-10.2h34.2l3.7,10.2h35.5L706.1,3.3H679z M616.2,102.7H611l-16.1-27.1c-4.2,0.9-8.5,1.4-12.9,1.4h-13.9v25.7    h-4.4V16.9h18.3c5.3,0,10.2,0.7,14.7,1.9c4.5,1.3,8.4,3.2,11.8,5.8c3.3,2.5,5.9,5.7,7.9,9.4c1.9,3.7,2.9,8.1,2.9,13    c0,7.1-1.8,12.9-5.4,17.3c-3.6,4.5-8.5,7.8-14.6,9.9L616.2,102.7z M723.7,102.7l-3.2-8.5h-55.8l-3.2,8.5h-4.7l32.7-85.8h6.4    l32.7,85.8H723.7z M812.2,46.8L781,3.3h-29.6v112.9h35.4V72.9l31,43.3h29.8V3.3h-35.4V46.8z M827.4,16.9h4.4v85.8h-4.4l-55.8-78.2    v78.2h-4.4V16.9h4.4L827.4,95V16.9z M853.4,3.3V33h20.8v83.2h37.2V33h20.8V3.3H853.4z M919.3,20.9h-24.2v81.7h-4.4V20.9h-24.2    v-4.1h52.8V20.9z"/>
	</g>
</g>
<g>
	<path style="fill:#FFFFFF" d="M336.2,163.5c0-16.7,9.3-26.6,22.8-26.6c13.5,0,22.8,9.9,22.8,26.6c0,16.7-9.3,27-22.8,27   C345.5,190.5,336.2,180.2,336.2,163.5z M372.3,163.5c0-11.6-5.2-18.6-13.4-18.6s-13.4,7-13.4,18.6s5.2,19,13.4,19   S372.3,175.1,372.3,163.5z"/>
	<path style="fill:#FFFFFF" d="M387.5,150.7h9.1l4.7,20.1c0.8,3.8,1.3,7.4,2,11.2h0.3c0.8-3.8,1.5-7.5,2.5-11.2l5.1-20.1h8.2l5.2,20.1   c0.9,3.8,1.7,7.4,2.6,11.2h0.3c0.8-3.8,1.3-7.4,2.1-11.2l4.6-20.1h8.5l-9.8,38.8h-10.8l-4.6-18.1c-0.8-3.6-1.5-7.2-2.3-11.3h-0.3   c-0.8,4.1-1.4,7.7-2.3,11.3l-4.4,18h-10.5L387.5,150.7z"/>
	<path style="fill:#FFFFFF" d="M450.4,150.7h7.5l0.7,5.2h0.3c3.5-3.4,7.4-6.2,12.7-6.2c8.3,0,11.9,5.6,11.9,15.4v24.3h-9.1v-23.2c0-6.4-1.8-8.8-6-8.8   c-3.4,0-5.7,1.7-8.8,4.8v27.1h-9.1V150.7z"/>
	<path style="fill:#FFFFFF" d="M492.1,170.2c0-12.6,8.8-20.4,17.9-20.4c10.5,0,16,7.6,16,18.4c0,1.7-0.2,3.5-0.4,4.4H501c0.8,6.9,5.2,10.8,11.4,10.8   c3.3,0,6.2-1,9-2.8l3.1,5.7c-3.7,2.5-8.4,4.2-13.3,4.2C500.5,190.5,492.1,183,492.1,170.2z M518.1,166.4c0-6-2.7-9.6-8-9.6   c-4.5,0-8.5,3.4-9.3,9.6H518.1z"/>
	<path style="fill:#FFFFFF" d="M534.7,150.7h7.5l0.7,6.9h0.3c2.8-5.1,6.9-7.9,11-7.9c2,0,3.2,0.3,4.4,0.8l-1.6,7.9c-1.4-0.4-2.4-0.6-4-0.6   c-3.1,0-6.8,2.1-9.2,8v23.7h-9.1V150.7z"/>
	<path style="fill:#FFFFFF" d="M576.4,176c0-16.1,23.9-17.4,23.9-28c0-2.7-1.2-4.8-4.2-4.8c-3.2,0-5.5,2.7-5.5,6.6c0,8.9,10.9,20.9,21.1,27.8   c4.2,2.8,8.3,4.8,11.6,5.5l-2.3,7.4c-4.6-1.1-9.8-3.5-14.8-7.1c-12.1-8.7-23.3-22.9-23.3-33.6c0-7.1,5.1-12.9,13-12.9   c7.1,0,11.4,4.4,11.4,11c0,13.5-22.3,17.1-22.3,27.5c0,4.8,3.8,8,8.9,8c3.9,0,7.9-2.3,11.3-5.7c4.1-4.3,7.3-9.9,9.2-16.8h8.3   c-2.3,7.7-5.9,14.8-11.2,20.9c-4.6,5.1-10.7,8.5-18.7,8.5C582.6,190.5,576.4,184.1,576.4,176z"/>
	<path style="fill:#FFFFFF" d="M647,137.9h10.4l9.1,25.2c1.1,3.3,2.2,6.8,3.3,10.1h0.3c1.1-3.4,2.1-6.9,3.3-10.1l8.9-25.2h10.4v51.7h-8.4v-23.6   c0-4.8,0.7-11.6,1.2-16.4h-0.3l-4.2,12l-8.5,23.2h-5.4l-8.5-23.2l-4.1-12h-0.3c0.4,4.8,1.2,11.7,1.2,16.4v23.6H647V137.9z"/>
	<path style="fill:#FFFFFF" d="M703,179.1c0-8.3,6.9-12.6,22.8-14.3c-0.1-4.2-1.8-7.6-7-7.6c-3.9,0-7.5,1.7-10.9,3.8l-3.3-6.1c4.3-2.7,9.8-5.1,15.9-5.1   c9.7,0,14.5,6,14.5,16.8v23h-7.5l-0.7-4.3h-0.3c-3.5,3-7.5,5.2-12,5.2C707.7,190.5,703,185.9,703,179.1z M725.8,179.1v-8.7   c-10.5,1.3-14,4.1-14,8c0,3.4,2.3,4.9,5.6,4.9C720.5,183.3,722.9,181.8,725.8,179.1z"/>
	<path style="fill:#FFFFFF" d="M745.8,150.7h7.5l0.7,5.2h0.3c3.5-3.4,7.4-6.2,12.7-6.2c8.3,0,11.9,5.6,11.9,15.4v24.3h-9.1v-23.2c0-6.4-1.8-8.8-6-8.8   c-3.4,0-5.7,1.7-8.8,4.8v27.1h-9.1V150.7z"/>
	<path style="fill:#FFFFFF" d="M788,179.1c0-8.3,6.9-12.6,22.8-14.3c-0.1-4.2-1.8-7.6-7-7.6c-3.9,0-7.5,1.7-10.9,3.8l-3.3-6.1c4.3-2.7,9.8-5.1,15.9-5.1   c9.7,0,14.5,6,14.5,16.8v23h-7.5l-0.7-4.3h-0.3c-3.5,3-7.5,5.2-12,5.2C792.6,190.5,788,185.9,788,179.1z M810.8,179.1v-8.7   c-10.5,1.3-14,4.1-14,8c0,3.4,2.3,4.9,5.6,4.9C805.5,183.3,807.9,181.8,810.8,179.1z"/>
	<path style="fill:#FFFFFF" d="M828.2,196.6c0-3.3,2-6.1,5.6-8.3V188c-2-1.3-3.5-3.3-3.5-6.5c0-3,2.1-5.7,4.3-7.2V174c-2.7-2-5.1-5.7-5.1-10.2   c0-8.9,7.2-13.9,15.3-13.9c2.1,0,4.2,0.4,5.8,0.9h13.9v6.8h-7.1c1.3,1.5,2.2,3.9,2.2,6.5c0,8.6-6.5,13.2-14.8,13.2   c-1.6,0-3.5-0.3-5.2-1c-1.2,1-1.9,2-1.9,3.7c0,2.2,1.6,3.5,6.3,3.5h6.9c9.3,0,14.2,2.9,14.2,9.6c0,7.6-8,13.7-20.7,13.7   C835,206.7,828.2,203.4,828.2,196.6z M856.2,194.5c0-3-2.4-3.9-6.8-3.9H844c-2.1,0-3.8-0.2-5.2-0.5c-2.1,1.6-3,3.3-3,5.1   c0,3.5,3.8,5.6,9.9,5.6C851.9,200.8,856.2,197.8,856.2,194.5z M851.5,163.7c0-4.9-2.9-7.6-6.7-7.6c-3.8,0-6.7,2.7-6.7,7.6   c0,4.9,3,7.8,6.7,7.8S851.5,168.7,851.5,163.7z"/>
	<path style="fill:#FFFFFF" d="M868,170.2c0-12.6,8.8-20.4,17.9-20.4c10.5,0,16,7.6,16,18.4c0,1.7-0.2,3.5-0.4,4.4h-24.6c0.8,6.9,5.2,10.8,11.4,10.8   c3.3,0,6.2-1,9-2.8l3.1,5.7c-3.7,2.5-8.4,4.2-13.3,4.2C876.4,190.5,868,183,868,170.2z M894.1,166.4c0-6-2.7-9.6-8-9.6   c-4.5,0-8.5,3.4-9.3,9.6H894.1z"/>
	<path style="fill:#FFFFFF" d="M910.6,150.7h7.5l0.7,6.9h0.3c2.8-5.1,6.9-7.9,11-7.9c2,0,3.2,0.3,4.4,0.8l-1.6,7.9c-1.4-0.4-2.4-0.6-4-0.6   c-3.1,0-6.8,2.1-9.2,8v23.7h-9.1V150.7z"/>
</g>
</svg>