<?xml version="1.0" encoding="utf-8"?>
<!-- Generator: Adobe Illustrator 22.1.0, SVG Export Plug-In . SVG Version: 6.00 Build 0)  -->
<svg version="1.1" id="Layer_1" xmlns="http://www.w3.org/2000/svg" xmlns:xlink="http://www.w3.org/1999/xlink" x="0px" y="0px"
	 viewBox="0 0 364 368" style="enable-background:new 0 0 364 368;" xml:space="preserve">
<style type="text/css">
	.st0{fill-rule:evenodd;clip-rule:evenodd;fill:#65450A;}
	.st1{fill-rule:evenodd;clip-rule:evenodd;fill:#F1F1F1;}
	.st2{fill-rule:evenodd;clip-rule:evenodd;fill:#FDB733;}
	.st3{fill-rule:evenodd;clip-rule:evenodd;fill:#3EB853;}
	.st4{fill-rule:evenodd;clip-rule:evenodd;fill:#FFFFFF;}
</style>
<g>
	<g>
		<g>
			<path class="st0" d="M2.5,191.1h41.7v-83L2.5,114V191.1z M318.8,106.8v84.3h41.7V114L318.8,106.8z"/>
		</g>
	</g>
	<path class="st1" d="M50.9,2.7h260.5c3.9,0,7.1,3.2,7.1,7.1v239.1c0,3.9-3.2,7.1-7.1,7.1H50.9c-3.9,0-7.1-3.2-7.1-7.1V9.8
		C43.8,5.9,47,2.7,50.9,2.7z"/>
	<path class="st2" d="M360.5,114.2v225.9c0,13.6-11,24.6-24.5,24.6H27c-13.5,0-24.5-11-24.5-24.6V114.2
		c60.4,47.3,100.7,80.4,147.1,115.4c17.1,0,43.6,0,61.3,0C286.2,179.7,360.5,114.4,360.5,114.2z"/>
	<g>
		<g>
			<path class="st3" d="M65,23.9v10.2h138.5V23.9H65z M65,53.8h92.1V43.6H65V53.8z M65,72.9h47.7V62.7H65V72.9z"/>
		</g>
	</g>
	<path class="st3" d="M183,102.5c30.3,0,54.9,24.6,54.9,54.9s-24.6,54.9-54.9,54.9s-54.9-24.6-54.9-54.9S152.7,102.5,183,102.5z"/>
	<path class="st4" d="M210.3,141.9l-36.3,36.3l-18.4-18.5l5.4-5.4l13.1,13.1l30.9-31L210.3,141.9z"/>
</g>
</svg>
