<?xml version="1.0" encoding="utf-8"?>
<!-- Generator: Adobe Illustrator 22.1.0, SVG Export Plug-In . SVG Version: 6.00 Build 0)  -->
<svg version="1.1" id="Layer_1" xmlns="http://www.w3.org/2000/svg" xmlns:xlink="http://www.w3.org/1999/xlink" x="0px" y="0px"
	 viewBox="0 0 730 400" style="enable-background:new 0 0 730 400;" xml:space="preserve">
<style type="text/css">
	.st0{fill-rule:evenodd;clip-rule:evenodd;fill:#262626;}
	.st1{fill-rule:evenodd;clip-rule:evenodd;fill:#F0F3F1;}
	.st2{fill-rule:evenodd;clip-rule:evenodd;fill:#217B00;}
	.st3{fill-rule:evenodd;clip-rule:evenodd;fill:#0088CD;}
	.st4{fill-rule:evenodd;clip-rule:evenodd;fill:#CEEDFD;}
	.st5{fill-rule:evenodd;clip-rule:evenodd;fill:#B4E2FD;}
</style>
<g>
	<g>
		<g>
			<path class="st0" d="M606.6,104.1c0-8.7-7.1-15.8-15.8-15.8c-8.7,0-15.8,7.1-15.8,15.8c0,8.7,7.1,15.8,15.8,15.8
				C599.5,119.9,606.6,112.9,606.6,104.1z M580.6,104.1c0-5.7,4.6-10.3,10.3-10.3c5.7,0,10.3,4.6,10.3,10.3s-4.6,10.3-10.3,10.3
				C585.2,114.4,580.6,109.8,580.6,104.1z M93.6,325.1c-8.7,0-15.8,7.1-15.8,15.8c0,8.7,7.1,15.8,15.8,15.8
				c8.7,0,15.8-7.1,15.8-15.8C109.4,332.2,102.3,325.1,93.6,325.1z M93.6,351.2c-5.7,0-10.3-4.6-10.3-10.3s4.6-10.3,10.3-10.3
				s10.3,4.6,10.3,10.3S99.2,351.2,93.6,351.2z M580.3,185.7H625v-7.9h-44.7V185.7z M632.9,177.8v7.9H725v-7.9H632.9z M23.6,267.8
				h44.7v-7.9H23.6V267.8z M92,259.9H76.2v7.9H92V259.9z M102.5,267.8h44.7v-7.9h-44.7V267.8z M625,219.9h-44.7v7.9H625V219.9z
				 M648.7,219.9h-15.8v7.9h15.8V219.9z M659.2,227.8H704v-7.9h-44.7V227.8z M48.9,227.8H4.1v7.9h44.7V227.8z M56.7,235.7h92.1v-7.9
				H56.7V235.7z M645.1,328l3.2-9.9c0.1-0.3-0.3-0.9-1.1-1.3s-1.5-0.5-1.7-0.3l-7,7.7c-1.4,1.8-1.1,4.5,1,5.7
				C641.8,331.2,644.3,330.2,645.1,328z M633.9,339.9c-2.2-1.2-4.7-0.2-5.5,2l-3.2,9.9c-0.1,0.3,0.4,0.9,1.1,1.3
				c0.7,0.4,1.5,0.5,1.7,0.3l7-7.7C636.4,343.9,636.1,341.1,633.9,339.9z M647.5,336.8c-1.8-1.4-4.5-1.1-5.7,1
				c-1.2,2.1-0.2,4.7,2,5.5l9.9,3.2c0.3,0.1,0.9-0.3,1.3-1.1c0.4-0.7,0.5-1.5,0.3-1.7L647.5,336.8z M631.9,332.1
				c1.2-2.2,0.2-4.7-2-5.5l-9.9-3.2c-0.3-0.1-0.9,0.4-1.3,1.1c-0.4,0.7-0.5,1.5-0.3,1.7l7.7,7C627.9,334.6,630.6,334.2,631.9,332.1z
				 M237,1.5c-2.2,0-3.9,1.8-3.9,3.9v13.2c0,2.2,1.8,3.9,3.9,3.9s3.9-1.8,3.9-3.9V5.5C240.9,3.3,239.1,1.5,237,1.5z M200.1,48.9H187
				c-2.2,0-3.9,1.8-3.9,3.9s1.8,3.9,3.9,3.9h13.2c2.2,0,3.9-1.8,3.9-3.9S202.3,48.9,200.1,48.9z M204.2,17.6c-1.5-1.5-4-1.5-5.6,0
				c-1.5,1.5-1.5,4,0,5.6l9.3,9.3c1.5,1.5,4,1.5,5.6,0c1.5-1.5,1.5-4,0-5.6L204.2,17.6z"/>
		</g>
	</g>
	<path class="st1" d="M240.9,37.8h242c14.5,0,26.3,11.8,26.3,26.3v186.8c0,14.5-11.8,26.3-26.3,26.3h-242
		c-14.5,0-26.3-11.8-26.3-26.3V64.1C214.6,49.6,226.4,37.8,240.9,37.8z"/>
	<g>
		<g>
			<path class="st2" d="M359.3,101.5c-30.5,0-55.3,24.8-55.3,55.3c0,30.5,24.8,55.3,55.3,55.3c30.5,0,55.3-24.8,55.3-55.3
				C414.6,126.3,389.8,101.5,359.3,101.5z M359.3,204.2c-26.1,0-47.4-21.3-47.4-47.4c0-26.1,21.3-47.4,47.4-47.4
				c26.1,0,47.4,21.3,47.4,47.4C406.7,182.9,385.4,204.2,359.3,204.2z M380.6,139.4l-27.6,27.6l-12.4-12.4c-1.5-1.5-4-1.5-5.5,0
				s-1.5,4,0,5.5l15.2,15.2c1.5,1.5,4,1.5,5.5,0l30.4-30.4c1.5-1.5,1.5-4,0-5.5C384.6,137.9,382.1,137.9,380.6,139.4z"/>
		</g>
	</g>
	<g>
		<g>
			<path class="st3" d="M169.9,213.5h44.7v-97.3l-44.7,13.2V213.5z M509.3,110.9v102.6H554v-84.2L509.3,110.9z"/>
		</g>
	</g>
	<path class="st4" d="M554,129.4v242c0,14.5-11.8,26.3-26.3,26.3H196.2c-14.5,0-26.3-11.8-26.3-26.3v-242
		c64.8,50.6,108,86.2,157.9,123.7c18.4,0,46.8,0,65.8,0C474.3,199.5,554,129.6,554,129.4z"/>
	<path class="st5" d="M552.2,380.9c-3.8,9.8-13.4,16.8-24.5,16.8H196.2c-11.2,0-20.8-7-24.6-16.9c0.1,0.1,26.5-20.7,156.1-127.8
		c18.4,0,46.8,0,65.8,0C506.3,341.8,531.4,361.4,552.2,380.9z"/>
</g>
</svg>
